<svg width="52" height="44" viewBox="0 0 52 44" fill="none" xmlns="http://www.w3.org/2000/svg">
<path d="M1.21151 16.6903C-0.118614 17.6782 -0.396057 19.5574 0.591831 20.8875L16.6904 42.5632C17.6783 43.8933 19.5574 44.1708 20.8875 43.1829C22.2177 42.195 22.4951 40.3159 21.5072 38.9857L7.19738 19.7184L26.4647 5.4086C27.7948 4.42071 28.0722 2.54159 27.0844 1.21146C26.0965 -0.118671 24.2173 -0.396112 22.8872 0.591776L1.21151 16.6903ZM3.00024 19.0988L2.56206 22.0666C21.0437 24.7953 32.7751 25.3935 39.9722 24.9803C43.5466 24.775 46.1854 24.3119 48.0266 23.6323C48.9418 23.2945 49.8332 22.8411 50.5461 22.1959C51.2769 21.5346 52.0002 20.4876 52.0002 19.0988H49.0002H46.0002C46.0002 18.2759 46.4361 17.8232 46.52 17.7472C46.586 17.6875 46.4712 17.8107 45.9489 18.0035C44.9151 18.3851 42.9539 18.7992 39.6283 18.9901C33.0254 19.3692 21.7568 18.8355 3.43842 16.1309L3.00024 19.0988Z" fill="#FFFF00"/>
</svg>
