<svg width="52" height="44" viewBox="0 0 52 44" fill="none" xmlns="http://www.w3.org/2000/svg">
<path d="M50.7887 16.6903C52.1189 17.6782 52.3963 19.5574 51.4084 20.8875L35.3098 42.5632C34.322 43.8933 32.4428 44.1708 31.1127 43.1829C29.7826 42.195 29.5051 40.3159 30.493 38.9857L44.8029 19.7184L25.5356 5.4086C24.2054 4.42071 23.928 2.54159 24.9159 1.21146C25.9038 -0.118671 27.7829 -0.396112 29.113 0.591776L50.7887 16.6903ZM49 19.0988L49.4382 22.0666C30.9565 24.7953 19.2251 25.3935 12.028 24.9803C8.45363 24.775 5.81481 24.3119 3.97368 23.6323C3.05847 23.2945 2.16701 22.8411 1.45415 22.1959C0.723383 21.5346 0 20.4876 0 19.0988H3H6C6 18.2759 5.56412 17.8232 5.48022 17.7472C5.41424 17.6875 5.52903 17.8107 6.05132 18.0035C7.08519 18.3851 9.04637 18.7992 12.372 18.9901C18.9749 19.3692 30.2435 18.8355 48.5618 16.1309L49 19.0988Z" fill="#FFFF00"/>
</svg>
